<?xml version="1.0" encoding="UTF-8"?>
<svg version="1.1" xmlns="http://www.w3.org/2000/svg" width="278" height="278">
<path d="M0 0 C15.71822779 12.00567775 26.48891414 28.24114503 29.796875 48.01708984 C33.602621 80.23666777 24.65018398 112.88148189 8.10595703 140.63378906 C5.57221596 143.54763252 5.57221596 143.54763252 2.94970703 144.03222656 C2.17626953 144.02449219 1.40283203 144.01675781 0.60595703 144.00878906 C-0.16748047 144.01652344 -0.94091797 144.02425781 -1.73779297 144.03222656 C-4.44136543 143.53265339 -5.29859208 142.85655345 -6.89404297 140.63378906 C-9.16060526 132.6160177 -5.36538108 125.33280007 -2.17333984 118.17773438 C7.53047883 96.37398715 15.38058109 70.08313898 7.10595703 46.63378906 C0.69156939 31.19928665 -7.43765988 20.59998402 -22.98779297 13.41113281 C-35.11450647 8.46601809 -47.96611868 9.7150574 -59.89404297 14.63378906 C-70.283137 19.41038402 -78.8814658 27.7998307 -82.89404297 38.63378906 C-84.94452742 44.67732217 -85.20624777 50.5615045 -85.11352539 56.91113281 C-85.17716437 59.69104495 -85.37710342 61.96089077 -87.10302734 64.20751953 C-90.16280115 66.95093388 -92.79831047 68.35753437 -96.89404297 68.38378906 C-100.66875933 68.16905969 -102.60176863 67.58205162 -105.14404297 64.75878906 C-107.84411837 61.00910689 -110.13243564 56.97674342 -112.46826172 52.99316406 C-116.82894982 45.77712129 -122.27690544 41.79500237 -129.83154297 38.25878906 C-138.62190782 36.46483705 -145.43797587 39.69683575 -152.64404297 44.44628906 C-158.85588257 50.48557756 -161.35832877 58.80141673 -162.13623047 67.27050781 C-161.76568186 85.82440622 -149.97200535 106.29086601 -138.16748047 119.93847656 C-136.35920318 122.08231046 -134.70726772 124.2345268 -133.05810547 126.49707031 C-129.97198495 130.64304111 -126.56124581 134.31150509 -122.89404297 137.94628906 C-122.24540283 138.59146484 -121.5967627 139.23664063 -120.9284668 139.90136719 C-114.65315095 146.03905646 -107.95960171 151.4397878 -100.89404297 156.63378906 C-99.98783203 157.30023438 -99.08162109 157.96667969 -98.14794922 158.65332031 C-94.0713772 161.57242571 -89.9049907 164.26763497 -85.59716797 166.83300781 C-84.7119043 167.36112061 -83.82664062 167.8892334 -82.91455078 168.43334961 C-82.2477832 168.82949463 -81.58101563 169.22563965 -80.89404297 169.63378906 C-80.76352539 168.44229248 -80.63300781 167.2507959 -80.49853516 166.02319336 C-75.92220921 124.38055347 -75.92220921 124.38055347 -73.06298828 106.44311523 C-72.90797852 105.46576416 -72.75296875 104.48841309 -72.59326172 103.48144531 C-72.45750732 102.65652588 -72.32175293 101.83160645 -72.18188477 100.98168945 C-71.87886504 98.50998406 -71.84455965 96.12150084 -71.89404297 93.63378906 C-72.61470947 93.75496094 -73.33537598 93.87613281 -74.07788086 94.00097656 C-77.36982271 94.55108816 -80.66313818 95.09250765 -83.95654297 95.63378906 C-85.09027344 95.82457031 -86.22400391 96.01535156 -87.39208984 96.21191406 C-101.76330721 98.55823527 -101.76330721 98.55823527 -106.10888672 96.67285156 C-108.8954502 94.38546839 -110.62600422 92.76933159 -111.47216797 89.18457031 C-111.64032855 85.16673369 -111.19943887 82.30010738 -109.51904297 78.63378906 C-99.08885218 70.68697703 -79.47216456 73.49821649 -66.89404297 73.63378906 C-66.84940918 73.05983398 -66.80477539 72.48587891 -66.75878906 71.89453125 C-66.13493784 64.78854193 -64.91881161 57.87430029 -63.51904297 50.88378906 C-63.31021484 49.78679688 -63.10138672 48.68980469 -62.88623047 47.55957031 C-60.81995637 37.16520367 -60.81995637 37.16520367 -57.89404297 32.63378906 C-52.99098078 29.36508094 -47.61128347 29.85384011 -41.89404297 30.63378906 C-38.94002197 32.07262633 -38.03121172 33.60931294 -36.89404297 36.63378906 C-35.95158178 44.8069361 -37.71402867 52.35131045 -39.83154297 60.19628906 C-40.10933594 61.27458984 -40.38712891 62.35289063 -40.67333984 63.46386719 C-42.7013005 71.24830413 -42.7013005 71.24830413 -43.89404297 73.63378906 C-42.67330078 73.74335937 -41.45255859 73.85292969 -40.19482422 73.96582031 C-13.33447067 76.49269536 -13.33447067 76.49269536 -8.58154297 81.25878906 C-6.40167844 85.61851813 -5.89010394 88.8608247 -6.89404297 93.63378906 C-9.06875888 98.06088931 -9.06875888 98.06088931 -11.89404297 99.63378906 C-19.54878911 101.14830172 -26.40672751 99.11842988 -33.62451172 96.65722656 C-38.62497514 95.091968 -43.71275321 94.34329901 -48.89404297 93.63378906 C-48.99330078 94.76816406 -49.09255859 95.90253906 -49.19482422 97.07128906 C-49.950002 103.85075588 -51.33494933 110.52208346 -52.61935425 117.21624756 C-56.70663808 138.5953463 -59.89537021 160.07864332 -62.89404297 181.63378906 C-62.13196533 181.92044434 -61.3698877 182.20709961 -60.5847168 182.50244141 C-57.18466693 183.93206041 -54.46009357 185.99870689 -51.58154297 188.25878906 C-51.00903809 188.70609375 -50.4365332 189.15339844 -49.84667969 189.61425781 C-38.54191985 198.57383038 -26.44700831 210.84284887 -24.62353516 225.86181641 C-23.83563538 236.71854707 -23.98951876 246.62011451 -31.10498047 255.34472656 C-37.09511535 261.77720986 -42.44439934 265.51411646 -51.33154297 266.06738281 C-52.85228202 266.08436701 -54.37327606 266.08556247 -55.89404297 266.07128906 C-56.64943359 266.09126953 -57.40482422 266.11125 -58.18310547 266.13183594 C-64.88961677 266.12607433 -69.86206315 264.08227636 -75.06591797 259.87988281 C-83.82920614 249.83680751 -84.4688452 239.11631614 -84.20654297 226.38378906 C-84.195011 224.97104196 -84.18523799 223.55827938 -84.17724609 222.14550781 C-83.96633133 197.85065416 -83.96633133 197.85065416 -81.89404297 191.63378906 C-82.54759766 191.39402344 -83.20115234 191.15425781 -83.87451172 190.90722656 C-96.74875332 185.47772752 -108.28430446 177.64752209 -119.17626953 168.99316406 C-120.65709641 167.82129879 -122.16032108 166.67783826 -123.66748047 165.54003906 C-149.70195356 145.35330916 -177.83266932 113.48701796 -182.89404297 79.63378906 C-184.03315504 66.88200417 -184.45504167 53.43710087 -178.89404297 41.63378906 C-178.56662109 40.9209375 -178.23919922 40.20808594 -177.90185547 39.47363281 C-173.009073 30.49162704 -163.51984573 21.18171325 -153.89404297 17.63378906 C-146.33893521 15.47895623 -138.76210058 13.86378342 -130.89404297 14.63378906 C-130.04583984 14.715 -129.19763672 14.79621094 -128.32373047 14.87988281 C-118.6618267 16.21493219 -110.33154968 20.38628343 -102.89404297 26.63378906 C-102.75675781 25.56064453 -102.75675781 25.56064453 -102.61669922 24.46582031 C-99.77902339 13.34519883 -87.78055778 3.401075 -78.58935547 -2.76855469 C-73.89362501 -5.55196593 -69.03587699 -7.55962061 -63.89404297 -9.36621094 C-63.00587891 -9.6871875 -62.11771484 -10.00816406 -61.20263672 -10.33886719 C-40.60240459 -16.63908043 -17.2998418 -12.47872064 0 0 Z M-64.89404297 202.63378906 C-67.56023815 210.6323746 -67.04183609 220.05525181 -67.20654297 228.44628906 C-67.23627197 229.23390625 -67.26600098 230.02152344 -67.29663086 230.83300781 C-67.36082308 237.25493256 -65.74591128 242.46138171 -61.39526367 247.30102539 C-59.16672557 249.27949172 -57.89175427 249.56717326 -54.89404297 249.63378906 C-49.65755224 247.87090673 -45.86443051 245.38640913 -42.89404297 240.63378906 C-42.04085758 238.80702476 -42.04085758 238.80702476 -41.89404297 236.63378906 C-41.74966797 235.45816406 -41.60529297 234.28253906 -41.45654297 233.07128906 C-41.64527126 222.89883405 -50.11496217 214.37648839 -56.89404297 207.63378906 C-60.36541599 204.00298207 -60.36541599 204.00298207 -64.89404297 202.63378906 Z " fill="#FFFFFF" transform="translate(214.89404296875,12.3662109375)"/>
</svg>
